<?xml version="1.0" encoding="UTF-8" standalone="no"?>
<!DOCTYPE svg PUBLIC "-//W3C//DTD SVG 1.1//EN" "http://www.w3.org/Graphics/SVG/1.1/DTD/svg11.dtd">
<svg width="100%" height="100%" viewBox="0 0 47 34" version="1.1" xmlns="http://www.w3.org/2000/svg" xmlns:xlink="http://www.w3.org/1999/xlink" xml:space="preserve" xmlns:serif="http://www.serif.com/" style="fill-rule:evenodd;clip-rule:evenodd;stroke-linejoin:round;stroke-miterlimit:2;">
    <g transform="matrix(1,0,0,1,-21719,-24746)">
        <g transform="matrix(0.304729,0,0,0.149476,19018.9,21697.1)">
            <g id="Back-Button" serif:id="Back Button" transform="matrix(-3.2816,0,0,6.69003,49963,-141115)">
                <path d="M12478.5,24145.4C12478.4,24145 12478.6,24144.5 12479,24144.2C12479.3,24143.9 12479.7,24143.6 12479.8,24143.5C12480.8,24143 12481.9,24143 12482.8,24143.6L12496.6,24152L12496.6,24146.4C12496.6,24145.3 12497.2,24144.3 12498.1,24143.8C12499,24143.3 12500.1,24143.3 12501,24143.8C12506.9,24147.4 12517,24153.6 12522.7,24157C12523.5,24157.6 12524.1,24158.5 12524.1,24159.5C12524.1,24160.6 12523.5,24161.5 12522.7,24162.1C12517,24165.5 12506.9,24171.7 12501,24175.3C12500.1,24175.8 12499,24175.8 12498.1,24175.3C12497.2,24174.8 12496.6,24173.8 12496.6,24172.7L12496.6,24166.6L12482.8,24175C12481.9,24175.5 12480.8,24175.6 12479.8,24175C12479.7,24175 12479.5,24174.9 12479.3,24174.8C12478.8,24174.5 12478.5,24174 12478.6,24173.4C12479.3,24168.8 12479.7,24164.2 12479.7,24159.4C12479.7,24154.5 12479.3,24150.1 12478.5,24145.4Z" style="fill:white;"/>
            </g>
        </g>
    </g>
</svg>
