<?xml version="1.0" encoding="UTF-8" standalone="no"?>
<!DOCTYPE svg PUBLIC "-//W3C//DTD SVG 1.1//EN" "http://www.w3.org/Graphics/SVG/1.1/DTD/svg11.dtd">
<svg width="100%" height="100%" viewBox="0 0 333 165" version="1.1" xmlns="http://www.w3.org/2000/svg" xmlns:xlink="http://www.w3.org/1999/xlink" xml:space="preserve" xmlns:serif="http://www.serif.com/" style="fill-rule:evenodd;clip-rule:evenodd;stroke-linecap:round;stroke-linejoin:round;stroke-miterlimit:1.5;">
    <g transform="matrix(1,0,0,1,-21690,-24681)">
        <g transform="matrix(0.304729,0,0,0.149476,19018.9,21697.1)">
            <g id="Control-Shell" serif:id="Control Shell" transform="matrix(3.2816,0,0,6.69003,-32619.1,-142684)">
                <path d="M12674.7,24354.1C12693.8,24354.1 12712.2,24347.3 12726.7,24334.9C12740.3,24323.1 12758.1,24316 12777.5,24316C12796.9,24316 12814.7,24323.1 12828.4,24334.9C12842.8,24347.3 12861.3,24354.1 12880.3,24354.1C12897.3,24354.1 12913.9,24354.1 12913.9,24354.1C12928.3,24354.1 12940,24365.8 12940,24380.2L12940,24407.8C12940,24422.1 12928.3,24433.8 12913.9,24433.8L12880.3,24433.8C12861.3,24433.8 12842.8,24440.6 12828.4,24453C12814.7,24464.8 12796.9,24471.9 12777.5,24471.9C12758.1,24471.9 12740.3,24464.8 12726.7,24453.1C12712.2,24440.7 12693.8,24433.8 12674.7,24433.8C12657.7,24433.8 12641.1,24433.8 12641.1,24433.8C12626.7,24433.8 12615,24422.1 12615,24407.8L12615,24380.2C12615,24365.8 12626.7,24354.1 12641.1,24354.1C12641.1,24354.1 12657.7,24354.1 12674.7,24354.1Z" style="fill:rgb(163,246,249);fill-opacity:0.8;stroke:white;stroke-width:7.62px;"/>
            </g>
        </g>
    </g>
</svg>
