<svg viewBox="0 0 79 79" xmlns="http://www.w3.org/2000/svg" fill-rule="evenodd" clip-rule="evenodd" stroke-linejoin="round" stroke-miterlimit="2"><path d="M39.637.52c21.504 0 38.962 17.459 38.962 38.963S61.141 78.445 39.637 78.445C18.133 78.445.675 60.987.675 39.483.675 17.979 18.133.52 39.637.52zm10.645 50.977c2.06.059 3.686 1.779 3.627 3.84-.058 2.06-1.779 3.686-3.839 3.627-2.061-.058-3.686-1.778-3.628-3.839.059-2.061 1.779-3.686 3.84-3.628zm-17.772-.106c2.061.059 3.686 1.779 3.628 3.84-.058 2.06-1.779 3.686-3.839 3.627-2.061-.058-3.687-1.778-3.628-3.839.058-2.061 1.779-3.686 3.839-3.628zm17.703 2.53c.723.02 1.293.624 1.273 1.347-.021.723-.624 1.294-1.348 1.273-.723-.02-1.293-.624-1.273-1.347.021-.723.625-1.294 1.348-1.273zm-17.771-.106c.723.02 1.293.624 1.273 1.347-.021.723-.625 1.294-1.348 1.273-.723-.02-1.293-.624-1.273-1.347.021-.723.624-1.294 1.348-1.273zm-9.225-23.89l-.453-1.638c-.472-1.703-2.09-2.828-3.85-2.677-.932.08-1.753-.611-1.833-1.543-.08-.931.611-1.752 1.543-1.832 3.386-.291 6.498 1.873 7.405 5.148l.143.517 4.081.255c.021.001.041.002.062.004l5.349.334c.021.001.042.003.063.004l5.349.335c.021 0 .042.002.063.003l5.349.335c.021.001.042.002.063.004l5.349.334c.021.001.042.002.063.004l5.349.334c.021.001.042.002.063.004l2.496.156c.518.032.993.301 1.288.728.295.428.378.967.225 1.463l-5.392 17.437c-.223.72-.895 1.207-1.65 1.193l-4.184-.077c-.021 0-.042 0-.063-.001l-5.3-.098c-.021 0-.042 0-.062-.001l-5.3-.097c-.021 0-.042-.001-.063-.002l-5.3-.097c-.021 0-.042 0-.062-.001l-4.942-.091c-.783-.014-1.454-.564-1.623-1.328l-4.226-19.109zm30.096 16.904l-2.886-14.018-1.907-.12 3.025 14.696 1.586.029.182-.587zm-7.131.459l1.89.035-3.057-14.851-1.907-.119 3.074 14.935zm-5.362-.099l1.89.035-3.107-15.09-1.907-.119 3.124 15.174zm-5.363-.098l1.89.035-3.155-15.33-1.908-.119 3.173 15.414zM28.78 31.458l-1.778-.111 3.461 15.652 1.522.028-3.205-15.569zm26.61 8.655l1.13-3.656-.681-3.308-1.908-.119 1.459 7.083z" fill="#fff"/></svg>