<svg viewBox="0 0 47 34" xmlns="http://www.w3.org/2000/svg" fill-rule="evenodd" clip-rule="evenodd" stroke-linejoin="round" stroke-miterlimit="2">
    <path d="M46.59141876 3.16828631c.09999987-.39999957-.09999987-.89999903-.49999935-1.1999987-.2999996-.29999969-.69999908-.59999936-.79999894-.69999926-.9999987-.49999946-2.09999725-.49999946-2.99999606.0999999L28.49144253 9.7682792V4.16828523c0-1.09999881-.5999992-2.09999774-1.49999803-2.5999972-.89999881-.49999946-1.99999737-.49999946-2.89999619 0-5.89999225 3.59999613-15.99997898 9.79998946-21.6999715 13.1999858-.79999894.59999936-1.39999815 1.49999839-1.39999815 2.49999731 0 1.09999882.59999921 1.99999785 1.39999816 2.5999972 5.69999251 3.39999635 15.79997924 9.59998968 21.6999715 13.1999858.89999881.49999947 1.99999737.49999947 2.89999618 0 .89999882-.49999946 1.49999803-1.49999838 1.49999803-2.5999972v-6.09999343l13.79998188 8.39999096c.89999881.49999946 1.99999737.59999935 2.99999606 0 .09999986 0 .2999996-.0999999.49999934-.19999979.49999934-.29999967.79999895-.79999914.69999908-1.39999849-.69999908-4.59999505-1.09999856-9.1999901-1.09999856-13.99998494 0-4.89999473.39999948-9.29999 1.19999843-13.99998494z" fill="#fff"/>
</svg>
