<svg viewBox="0 0 333 165" xmlns="http://www.w3.org/2000/svg" fill-rule="evenodd" clip-rule="evenodd" stroke-linecap="round" stroke-linejoin="round" stroke-miterlimit="1.5">
    <path d="M12674.7 24354.1c19.1 0 37.5-6.8 52-19.2 13.6-11.8 31.4-18.9 50.8-18.9s37.2 7.1 50.9 18.9c14.4 12.4 32.9 19.2 51.9 19.2h33.6c14.4 0 26.1 11.7 26.1 26.1v27.6c0 14.3-11.7 26-26.1 26h-33.6c-19 0-37.5 6.8-51.9 19.2-13.7 11.8-31.5 18.9-50.9 18.9s-37.2-7.1-50.8-18.8c-14.5-12.4-32.9-19.3-52-19.3h-33.6c-14.4 0-26.1-11.7-26.1-26v-27.6c0-14.4 11.7-26.1 26.1-26.1h33.6z" fill="#a3f6f9" fill-opacity=".8" stroke="#fff" stroke-width="7.62" transform="matrix(1 0 0 1 -12611.0857239 -24311.733584)"/>
</svg>
