<svg viewBox="0 0 123 122" xmlns="http://www.w3.org/2000/svg" fill-rule="evenodd" clip-rule="evenodd" stroke-linejoin="round" stroke-miterlimit="2">
    <path d="M61.40304983.53412303c33.499956 0 60.69992027 27.19997074 60.69992027 60.6999347 0 33.59996386-27.19996427 60.7999346-60.69992027 60.7999346S.70312957 94.83402159.70312957 61.23405773c0-33.49996396 27.19996427-60.6999347 60.69992026-60.6999347zM84.90301896 59.0340601c1.5999979.99999892 2.49999672 2.6999971 2.49999672 4.49999516s-.89999882 3.49999623-2.49999672 4.39999526c-8.69998857 5.2999943-23.29996939 14.29998462-32.29995757 19.7999787-1.5999979.99999893-3.59999527.99999893-5.29999304.0999999-1.5999979-.99999893-2.59999658-2.6999971-2.59999658-4.59999506v-39.4999575c0-1.89999796.99999869-3.59999613 2.59999658-4.49999516 1.69999777-.99999893 3.69999514-.89999904 5.29999304.09999989 8.99998818 5.49999408 23.599969 14.3999845 32.29995757 19.6999788z" fill="#fff"/>
</svg>
